<svg width="25" height="25" viewBox="0 0 25 25" fill="none" xmlns="http://www.w3.org/2000/svg">
    <path
        d="M22.6749 4.37789L22.181 2.35139C22.1464 2.21146 22.0023 2.11014 21.8313 2.10692C20.2863 2.08119 12.9631 2.05867 7.89585 2.04581L7.11184 0L5.82052 0.345793L6.4681 2.04259C5.04804 2.03937 3.92583 2.03616 3.3455 2.03616C3.09185 2.03616 2.87279 2.18412 2.82091 2.3916L2.32898 4.37789H0V5.15311V5.51338V6.2886H1.52959L5.37471 25H19.6253L23.4704 6.2886H25V5.51338V5.15311V4.37789H22.6749ZM6.51806 23.8645L5.59377 19.366H19.4081L18.4839 23.8645H6.51806ZM8.30515 14.7903C8.30515 12.8908 10.146 11.35 12.4154 11.35C14.6849 11.35 16.5257 12.8892 16.5257 14.7903C16.5257 16.6897 14.6849 18.2305 12.4154 18.2305C10.146 18.2305 8.30515 16.6897 8.30515 14.7903ZM21.2625 10.3432H3.73943L3.02075 6.84187H21.9812L21.2625 10.3432Z"
        fill="currentColor" />
</svg>