<svg width="25" height="25" viewBox="0 0 25 25" fill="none" xmlns="http://www.w3.org/2000/svg">
    <path
        d="M3.125 15.3646C4.85089 15.3646 6.25 14.2569 6.25 12.8906C6.25 11.5243 4.85089 10.4167 3.125 10.4167C1.39911 10.4167 0 11.5243 0 12.8906C0 14.2569 1.39911 15.3646 3.125 15.3646Z"
        fill="currentColor" />
    <path
        d="M12.5 15.3646C14.2259 15.3646 15.625 14.2569 15.625 12.8906C15.625 11.5243 14.2259 10.4167 12.5 10.4167C10.7741 10.4167 9.375 11.5243 9.375 12.8906C9.375 14.2569 10.7741 15.3646 12.5 15.3646Z"
        fill="currentColor" />
    <path
        d="M21.875 15.3646C23.6009 15.3646 25 14.2569 25 12.8906C25 11.5243 23.6009 10.4167 21.875 10.4167C20.1491 10.4167 18.75 11.5243 18.75 12.8906C18.75 14.2569 20.1491 15.3646 21.875 15.3646Z"
        fill="currentColor" />
</svg>
    