<svg width="21" height="25" viewBox="0 0 21 25" fill="none" xmlns="http://www.w3.org/2000/svg">
    <path
        d="M10.3711 15.625C13.8086 15.625 16.6211 12.8125 16.6211 9.375C16.6211 5.9375 13.8086 3.125 10.3711 3.125C6.93359 3.125 4.12109 5.9375 4.12109 9.375C4.12109 12.8125 6.93359 15.625 10.3711 15.625Z"
        fill="currentColor" />
    <path
        d="M20.8398 20.3906L18.1055 14.6875C19.1211 13.2031 19.7461 11.3281 19.7461 9.375C19.7461 4.21875 15.5273 0 10.3711 0C5.21484 0 0.996094 4.21875 0.996094 9.375C0.996094 11.4062 1.62109 13.2031 2.71484 14.7656L0.0585938 20.3906C-0.0195313 20.625 -0.0195313 20.9375 0.0585938 21.0938C0.136719 21.25 0.449219 21.4844 0.683594 21.4844L4.35547 21.7187L6.85547 24.4531C7.01172 24.6094 7.24609 24.6875 7.40234 24.6875C7.40234 24.6875 7.48047 24.6875 7.55859 24.6875C7.79297 24.6875 8.02734 24.4531 8.18359 24.2188L10.4492 19.5312L12.7148 24.2188C12.793 24.4531 13.0273 24.6094 13.3398 24.6875C13.3398 24.6875 13.418 24.6875 13.4961 24.6875C13.7305 24.6875 13.8867 24.6094 14.043 24.4531L16.543 21.7187L20.2148 21.4844C20.4492 21.4844 20.6836 21.3281 20.8398 21.0938C20.9961 20.8594 20.918 20.625 20.8398 20.3906ZM10.3711 1.5625C14.668 1.5625 18.1836 5.07812 18.1836 9.375C18.1836 13.6719 14.668 17.1875 10.3711 17.1875C6.07422 17.1875 2.55859 13.6719 2.55859 9.375C2.55859 5.07812 6.07422 1.5625 10.3711 1.5625Z"
        fill="currentColor" />
</svg>