<svg width="25" height="25" viewBox="0 0 25 25" fill="none" xmlns="http://www.w3.org/2000/svg">
    <path
        d="M24.4904 5.54001L21.2704 0.240008C21.2256 0.166299 21.1624 0.105457 21.087 0.0634011C21.0117 0.0213449 20.9267 -0.000494039 20.8404 8.48027e-06H4.19044C4.10415 -0.000494039 4.0192 0.0213449 3.94385 0.0634011C3.8685 0.105457 3.80531 0.166299 3.76044 0.240008L0.500441 5.60001C0.210637 6.12295 0.0399041 6.70344 0.00044087 7.30001V8.00001C-0.0103437 8.62916 0.176973 9.24577 0.53589 9.76261C0.894808 10.2795 1.40715 10.6704 2.00044 10.88V23.72C2.02096 24.0684 2.17461 24.3956 2.42962 24.6338C2.68463 24.8721 3.02147 25.0032 3.37044 25H21.6304C21.9794 25.0032 22.3163 24.8721 22.5713 24.6338C22.8263 24.3956 22.9799 24.0684 23.0004 23.72V10.85C23.5888 10.642 24.0977 10.2557 24.4562 9.74483C24.8147 9.23399 25.0049 8.62407 25.0004 8.00001V7.30001C24.9604 6.68324 24.7864 6.08261 24.4904 5.54001ZM22.0004 19H3.00044V11C3.46323 10.989 3.91675 10.868 4.32361 10.6472C4.73047 10.4264 5.07899 10.112 5.34044 9.73001C5.60392 10.1219 5.95971 10.4429 6.37649 10.6649C6.79326 10.8869 7.25823 11.0031 7.73044 11.0031C8.20265 11.0031 8.66762 10.8869 9.08439 10.6649C9.50117 10.4429 9.85696 10.1219 10.1204 9.73001C10.3831 10.1198 10.7375 10.4391 11.1525 10.6599C11.5675 10.8807 12.0304 10.9961 12.5004 10.9961C12.9705 10.9961 13.4334 10.8807 13.8483 10.6599C14.2633 10.4391 14.6177 10.1198 14.8804 9.73001C15.1428 10.1219 15.4976 10.4431 15.9136 10.6652C16.3296 10.8874 16.7939 11.0036 17.2654 11.0036C17.737 11.0036 18.2013 10.8874 18.6173 10.6652C19.0333 10.4431 19.3881 10.1219 19.6504 9.73001C19.9174 10.1088 20.2686 10.4206 20.6763 10.641C21.084 10.8613 21.5373 10.9842 22.0004 11V19Z"
        fill="currentColor" />
</svg>