<svg width="45" height="45" viewBox="0 0 45 45" fill="none" xmlns="http://www.w3.org/2000/svg">
    <rect width="45" height="45" rx="22.5" fill="#171A1F" />
    <path
        d="M25.9453 22.1055C25.9453 22.1602 25.8633 23.7734 27.6406 24.6211C27.3125 25.6328 26.1641 27.875 24.8242 27.875C24.0586 27.875 23.6211 27.3828 22.7461 27.3828C21.8438 27.3828 21.3516 27.875 20.668 27.875C19.3555 27.9297 18.0977 25.4688 17.7422 24.457C17.4688 23.6914 17.3594 22.9531 17.3594 22.2422C17.3594 19.8086 18.9727 18.6328 20.5039 18.6055C21.2422 18.6055 22.1719 19.125 22.582 19.125C22.9648 19.125 24.0312 18.4961 25.0156 18.5781C26.0273 18.6602 26.793 19.043 27.3125 19.7812C26.4102 20.3555 25.9453 21.0938 25.9453 22.1055ZM24.4141 17.6211C23.8672 18.25 23.2109 18.6055 22.5 18.5508C22.4453 17.8125 22.7188 17.1289 23.2109 16.582C23.6484 16.0898 24.4141 15.6797 25.0703 15.625C25.0703 15.9258 25.1523 16.7461 24.4141 17.6211Z"
        fill="white" />
</svg>
    