<svg width="14" height="15" viewBox="0 0 14 13" fill="none" xmlns="http://www.w3.org/2000/svg">
<path d="M2.5 0.5C2.75781 0.5 2.99219 0.710938 3.03906 0.96875L3.08594 1.25H12.9297C13.4219 1.25 13.7969 1.74219 13.6562 2.21094L12.3906 6.71094C12.2969 7.03906 12.0156 7.25 11.6641 7.25H4.23438L4.44531 8.375H11.6875C11.9922 8.375 12.25 8.63281 12.25 8.9375C12.25 9.26562 11.9922 9.5 11.6875 9.5H3.97656C3.71875 9.5 3.48438 9.3125 3.4375 9.05469L2.03125 1.625H0.8125C0.484375 1.625 0.25 1.39062 0.25 1.0625C0.25 0.757812 0.484375 0.5 0.8125 0.5H2.5ZM3.25 11.375C3.25 10.7656 3.74219 10.25 4.375 10.25C4.98438 10.25 5.5 10.7656 5.5 11.375C5.5 12.0078 4.98438 12.5 4.375 12.5C3.74219 12.5 3.25 12.0078 3.25 11.375ZM12.25 11.375C12.25 12.0078 11.7344 12.5 11.125 12.5C10.4922 12.5 10 12.0078 10 11.375C10 10.7656 10.4922 10.25 11.125 10.25C11.7344 10.25 12.25 10.7656 12.25 11.375Z" fill="#004D3D"/>
</svg>
