<svg width="63" height="65" viewBox="0 0 63 65" fill="none" xmlns="http://www.w3.org/2000/svg">
<g filter="url(#filter0_d_2019_472)">
<g filter="url(#filter1_d_2019_472)">
<rect x="15" y="12" width="33" height="33" rx="16.5" fill="white"/>
</g>
</g>
<path d="M33.5625 28L36.6875 31.1562C37.0938 31.5312 37.0938 32.1562 36.6875 32.5312L36 33.2188C35.625 33.625 35 33.625 34.625 33.2188L31.5 30.0938L28.3438 33.2188C27.9688 33.625 27.3438 33.625 26.9688 33.2188L26.2812 32.5312C25.875 32.1562 25.875 31.5312 26.2812 31.1562L29.4062 28L26.2812 24.875C25.875 24.5 25.875 23.875 26.2812 23.5L26.9688 22.8125C27.3438 22.4062 27.9688 22.4062 28.3438 22.8125L31.5 25.9375L34.625 22.8125C35 22.4062 35.625 22.4062 36 22.8125L36.6875 23.5C37.0938 23.875 37.0938 24.5 36.6875 24.875L33.5625 28Z" fill="#274788"/>
<defs>
<filter id="filter0_d_2019_472" x="0" y="2" width="63" height="63" filterUnits="userSpaceOnUse" color-interpolation-filters="sRGB">
<feFlood flood-opacity="0" result="BackgroundImageFix"/>
<feColorMatrix in="SourceAlpha" type="matrix" values="0 0 0 0 0 0 0 0 0 0 0 0 0 0 0 0 0 0 127 0" result="hardAlpha"/>
<feOffset dy="5"/>
<feGaussianBlur stdDeviation="7.5"/>
<feComposite in2="hardAlpha" operator="out"/>
<feColorMatrix type="matrix" values="0 0 0 0 0.768627 0 0 0 0 0.768627 0 0 0 0 0.768627 0 0 0 0.6 0"/>
<feBlend mode="normal" in2="BackgroundImageFix" result="effect1_dropShadow_2019_472"/>
<feBlend mode="normal" in="SourceGraphic" in2="effect1_dropShadow_2019_472" result="shape"/>
</filter>
<filter id="filter1_d_2019_472" x="0" y="0" width="63" height="63" filterUnits="userSpaceOnUse" color-interpolation-filters="sRGB">
<feFlood flood-opacity="0" result="BackgroundImageFix"/>
<feColorMatrix in="SourceAlpha" type="matrix" values="0 0 0 0 0 0 0 0 0 0 0 0 0 0 0 0 0 0 127 0" result="hardAlpha"/>
<feOffset dy="3"/>
<feGaussianBlur stdDeviation="7.5"/>
<feComposite in2="hardAlpha" operator="out"/>
<feColorMatrix type="matrix" values="0 0 0 0 0.768333 0 0 0 0 0.768333 0 0 0 0 0.768333 0 0 0 0.6 0"/>
<feBlend mode="normal" in2="BackgroundImageFix" result="effect1_dropShadow_2019_472"/>
<feBlend mode="normal" in="SourceGraphic" in2="effect1_dropShadow_2019_472" result="shape"/>
</filter>
</defs>
</svg>
