<svg width="12" height="13" viewBox="0 0 12 13" fill="none" xmlns="http://www.w3.org/2000/svg">
<path d="M9 2.75C9 3.17188 9.32812 3.5 9.75 3.5H12V8.375C12 9.00781 11.4844 9.5 10.875 9.5H6.375C5.74219 9.5 5.25 9.00781 5.25 8.375V1.625C5.25 1.01562 5.74219 0.5 6.375 0.5H9V2.75ZM9.75 0.5L12 2.75H9.75V0.5ZM4.5 8.75C4.5 9.59375 5.15625 10.25 6 10.25H6.75V11.375C6.75 12.0078 6.23438 12.5 5.625 12.5H1.125C0.492188 12.5 0 12.0078 0 11.375V4.625C0 4.01562 0.492188 3.5 1.125 3.5H4.5V8.75Z" fill="currentColor"/>
</svg>
