<svg width="66" height="67" viewBox="0 0 66 67" fill="none" xmlns="http://www.w3.org/2000/svg">
<g clip-path="url(#clip0_2003_291)">
<g filter="url(#filter0_d_2003_291)">
<rect width="66" height="66" rx="33" fill="url(#paint0_linear_2003_291)"/>
</g>
<path d="M24.583 21.8096C25.0986 21.8096 25.5674 22.2314 25.6611 22.7471L25.7549 23.3096H45.4424C46.4268 23.3096 47.1768 24.2939 46.8955 25.2314L44.3643 34.2314C44.1768 34.8877 43.6143 35.3096 42.9111 35.3096H28.0518L28.4736 37.5596H42.958C43.5674 37.5596 44.083 38.0752 44.083 38.6846C44.083 39.3408 43.5674 39.8096 42.958 39.8096H27.5361C27.0205 39.8096 26.5518 39.4346 26.458 38.9189L23.6455 24.0596H21.208C20.5518 24.0596 20.083 23.5908 20.083 22.9346C20.083 22.3252 20.5518 21.8096 21.208 21.8096H24.583ZM26.083 43.5596C26.083 42.3408 27.0674 41.3096 28.333 41.3096C29.5518 41.3096 30.583 42.3408 30.583 43.5596C30.583 44.8252 29.5518 45.8096 28.333 45.8096C27.0674 45.8096 26.083 44.8252 26.083 43.5596ZM44.083 43.5596C44.083 44.8252 43.0518 45.8096 41.833 45.8096C40.5674 45.8096 39.583 44.8252 39.583 43.5596C39.583 42.3408 40.5674 41.3096 41.833 41.3096C43.0518 41.3096 44.083 42.3408 44.083 43.5596Z" fill="#FDFDFD"/>
<rect x="0.5" y="0.69043" width="65" height="65" rx="32.5" stroke="#3B8CCB"/>
</g>
<defs>
<filter id="filter0_d_2003_291" x="-15" y="-10" width="96" height="96" filterUnits="userSpaceOnUse" color-interpolation-filters="sRGB">
<feFlood flood-opacity="0" result="BackgroundImageFix"/>
<feColorMatrix in="SourceAlpha" type="matrix" values="0 0 0 0 0 0 0 0 0 0 0 0 0 0 0 0 0 0 127 0" result="hardAlpha"/>
<feOffset dy="5"/>
<feGaussianBlur stdDeviation="7.5"/>
<feComposite in2="hardAlpha" operator="out"/>
<feColorMatrix type="matrix" values="0 0 0 0 0.639167 0 0 0 0 0.828695 0 0 0 0 1 0 0 0 0.75 0"/>
<feBlend mode="normal" in2="BackgroundImageFix" result="effect1_dropShadow_2003_291"/>
<feBlend mode="normal" in="SourceGraphic" in2="effect1_dropShadow_2003_291" result="shape"/>
</filter>
<linearGradient id="paint0_linear_2003_291" x1="32.9715" y1="65.6071" x2="32.9715" y2="-0.392879" gradientUnits="userSpaceOnUse">
<stop stop-color="#1F68A0"/>
<stop offset="1" stop-color="#B0DBFF"/>
</linearGradient>
<clipPath id="clip0_2003_291">
<rect width="66" height="66.1904" fill="white"/>
</clipPath>
</defs>
</svg>
