<svg width="66" height="67" viewBox="0 0 66 67" fill="none" xmlns="http://www.w3.org/2000/svg">
<g clip-path="url(#clip0_2003_296)">
<g filter="url(#filter0_d_2003_296)">
<rect y="0.19043" width="66" height="66" rx="33" fill="url(#paint0_linear_2003_296)"/>
</g>
<rect x="0.5" y="0.5" width="65" height="65" rx="32.5" stroke="#284989"/>
<path d="M33.3711 36.8154C36.8086 36.8154 39.6211 34.0029 39.6211 30.5654C39.6211 27.1279 36.8086 24.3154 33.3711 24.3154C29.9336 24.3154 27.1211 27.1279 27.1211 30.5654C27.1211 34.0029 29.9336 36.8154 33.3711 36.8154Z" fill="#FFFBF7"/>
<path d="M43.8398 41.5811L41.1055 35.8779C42.1211 34.3936 42.7461 32.5186 42.7461 30.5654C42.7461 25.4092 38.5273 21.1904 33.3711 21.1904C28.2148 21.1904 23.9961 25.4092 23.9961 30.5654C23.9961 32.5967 24.6211 34.3936 25.7148 35.9561L23.0586 41.5811C22.9805 41.8154 22.9805 42.1279 23.0586 42.2842C23.1367 42.4404 23.4492 42.6748 23.6836 42.6748L27.3555 42.9092L29.8555 45.6436C30.0117 45.7998 30.2461 45.8779 30.4023 45.8779C30.4023 45.8779 30.4805 45.8779 30.5586 45.8779C30.793 45.8779 31.0273 45.6436 31.1836 45.4092L33.4492 40.7217L35.7148 45.4092C35.793 45.6436 36.0273 45.7998 36.3398 45.8779C36.3398 45.8779 36.418 45.8779 36.4961 45.8779C36.7305 45.8779 36.8867 45.7998 37.043 45.6436L39.543 42.9092L43.2148 42.6748C43.4492 42.6748 43.6836 42.5186 43.8398 42.2842C43.9961 42.0498 43.918 41.8154 43.8398 41.5811ZM33.3711 22.7529C37.668 22.7529 41.1836 26.2686 41.1836 30.5654C41.1836 34.8623 37.668 38.3779 33.3711 38.3779C29.0742 38.3779 25.5586 34.8623 25.5586 30.5654C25.5586 26.2686 29.0742 22.7529 33.3711 22.7529Z" fill="#FFFBF7"/>
</g>
<defs>
<filter id="filter0_d_2003_296" x="-15" y="-9.80957" width="96" height="96" filterUnits="userSpaceOnUse" color-interpolation-filters="sRGB">
<feFlood flood-opacity="0" result="BackgroundImageFix"/>
<feColorMatrix in="SourceAlpha" type="matrix" values="0 0 0 0 0 0 0 0 0 0 0 0 0 0 0 0 0 0 127 0" result="hardAlpha"/>
<feOffset dy="5"/>
<feGaussianBlur stdDeviation="7.5"/>
<feComposite in2="hardAlpha" operator="out"/>
<feColorMatrix type="matrix" values="0 0 0 0 0.649167 0 0 0 0 0.826286 0 0 0 0 1 0 0 0 1 0"/>
<feBlend mode="normal" in2="BackgroundImageFix" result="effect1_dropShadow_2003_296"/>
<feBlend mode="normal" in="SourceGraphic" in2="effect1_dropShadow_2003_296" result="shape"/>
</filter>
<linearGradient id="paint0_linear_2003_296" x1="33" y1="0.19043" x2="33" y2="66.1904" gradientUnits="userSpaceOnUse">
<stop stop-color="#6BA4D4"/>
<stop offset="1" stop-color="#274788"/>
</linearGradient>
<clipPath id="clip0_2003_296">
<rect width="66" height="66.1904" fill="white"/>
</clipPath>
</defs>
</svg>
