<svg xmlns="http://www.w3.org/2000/svg"
    xmlns:xlink="http://www.w3.org/1999/xlink" version="1.1" x="0px" y="0px" viewBox="0 0 64 80" style="enable-background:new 0 0 64 64;" xml:space="preserve" fill='currentColor'>
    <g>
        <path d="M63,13h-3v-2c0-0.552-0.447-1-1-1H36c-1.641,0-3.088,0.806-4,2.031C31.088,10.806,29.641,10,28,10H5c-0.553,0-1,0.448-1,1   v2H1c-0.553,0-1,0.448-1,1v39c0,0.552,0.447,1,1,1h31h31c0.553,0,1-0.448,1-1V14C64,13.448,63.553,13,63,13z M36,12h22v2v34H36   c-1.13,0-2.162,0.391-3,1.025V15C33,13.346,34.346,12,36,12z M6,12h22c1.654,0,3,1.346,3,3v34.025C30.162,48.391,29.13,48,28,48H6   V14V12z M2,52V15h2v34c0,0.552,0.447,1,1,1h23c1.304,0,2.416,0.836,2.828,2H2z M62,52H33.172c0.412-1.164,1.524-2,2.828-2h23   c0.553,0,1-0.448,1-1V15h2V52z"/>
        <path d="M48.782,27.458l-1.657,11.592C47.041,39.388,47,39.7,47,40c0,2.206,1.795,4,4,4c2.205,0,4-1.794,4-4   c0-0.3-0.041-0.612-0.125-0.951l-1.657-11.592C54.859,26.637,56,24.956,56,23v-5c0-0.552-0.447-1-1-1c-0.553,0-1,0.448-1,1v4h-2v-4   c0-0.552-0.447-1-1-1c-0.553,0-1,0.448-1,1v4h-2v-4c0-0.552-0.447-1-1-1c-0.553,0-1,0.448-1,1v5   C46,24.956,47.141,26.637,48.782,27.458z M52.902,39.386c0.006,0.038,0.013,0.075,0.022,0.111C52.977,39.694,53,39.854,53,40   c0,1.103-0.897,2-2,2c-1.104,0-2-0.897-2-2c0-0.146,0.023-0.306,0.075-0.503c0.01-0.037,0.017-0.074,0.023-0.111l1.631-11.413   C50.82,27.978,50.907,28,51,28c0.093,0,0.18-0.022,0.271-0.027L52.902,39.386z M53.828,24c-0.304,0.858-0.989,1.535-1.85,1.833   c-0.001,0-0.002,0-0.003,0c-0.028,0.004-0.05,0.021-0.076,0.027C51.615,25.949,51.313,26,51,26c-0.314,0-0.615-0.051-0.899-0.141   c-0.026-0.006-0.048-0.023-0.076-0.027c-0.001,0-0.002,0-0.003,0c-0.86-0.298-1.546-0.975-1.85-1.833H53.828z"/>
        <path d="M37.782,27.458l-1.657,11.592C36.041,39.388,36,39.7,36,40c0,2.206,1.795,4,4,4c2.205,0,4-1.794,4-4   c0-0.3-0.041-0.612-0.125-0.951l-1.657-11.592C43.859,26.637,45,24.956,45,23c0-2.403-1.947-7-5-7c-3.053,0-5,4.597-5,7   C35,24.956,36.141,26.637,37.782,27.458z M41.902,39.386c0.006,0.038,0.013,0.075,0.022,0.111C41.977,39.694,42,39.854,42,40   c0,1.103-0.897,2-2,2c-1.104,0-2-0.897-2-2c0-0.146,0.023-0.306,0.075-0.503c0.01-0.037,0.017-0.074,0.023-0.111l1.631-11.413   C39.82,27.978,39.907,28,40,28c0.093,0,0.18-0.022,0.271-0.027L41.902,39.386z M40,18c1.391,0,3,3.026,3,5c0,1.654-1.346,3-3,3   c-1.654,0-3-1.346-3-3C37,21.026,38.609,18,40,18z"/>
        <path d="M12,22h12c0.553,0,1-0.448,1-1v-4c0-0.552-0.447-1-1-1H12c-0.553,0-1,0.448-1,1v4C11,21.552,11.447,22,12,22z M13,18h10v2   H13V18z"/>
        <path d="M10,28h9c0.553,0,1-0.448,1-1s-0.447-1-1-1h-9c-0.553,0-1,0.448-1,1S9.447,28,10,28z"/>
        <path d="M24,27c0,0.552,0.447,1,1,1h2c0.553,0,1-0.448,1-1s-0.447-1-1-1h-2C24.447,26,24,26.448,24,27z"/>
        <path d="M10,32h6c0.553,0,1-0.448,1-1s-0.447-1-1-1h-6c-0.553,0-1,0.448-1,1S9.447,32,10,32z"/>
        <path d="M27,30h-2c-0.553,0-1,0.448-1,1s0.447,1,1,1h2c0.553,0,1-0.448,1-1S27.553,30,27,30z"/>
        <path d="M10,36h9c0.553,0,1-0.448,1-1s-0.447-1-1-1h-9c-0.553,0-1,0.448-1,1S9.447,36,10,36z"/>
        <path d="M27,34h-2c-0.553,0-1,0.448-1,1s0.447,1,1,1h2c0.553,0,1-0.448,1-1S27.553,34,27,34z"/>
        <path d="M10,44h9c0.553,0,1-0.448,1-1s-0.447-1-1-1h-9c-0.553,0-1,0.448-1,1S9.447,44,10,44z"/>
        <path d="M27,42h-2c-0.553,0-1,0.448-1,1s0.447,1,1,1h2c0.553,0,1-0.448,1-1S27.553,42,27,42z"/>
        <path d="M10,40h7c0.553,0,1-0.448,1-1s-0.447-1-1-1h-7c-0.553,0-1,0.448-1,1S9.447,40,10,40z"/>
        <path d="M27,38h-2c-0.553,0-1,0.448-1,1s0.447,1,1,1h2c0.553,0,1-0.448,1-1S27.553,38,27,38z"/>
    </g>
</svg>