<svg width="45" height="45" viewBox="0 0 45 45" fill="none" xmlns="http://www.w3.org/2000/svg">
    <rect width="45" height="45" rx="22.5" fill="#AB290D" />
    <path
        d="M30 21.9141C30 25.7969 27.3477 28.5312 23.4375 28.5312C19.6641 28.5312 16.6562 25.5234 16.6562 21.75C16.6562 18.0039 19.6641 14.9688 23.4375 14.9688C25.2422 14.9688 26.8008 15.6523 27.9766 16.7461L26.1172 18.5234C23.7109 16.1992 19.2266 17.9492 19.2266 21.75C19.2266 24.1289 21.1133 26.043 23.4375 26.043C26.1172 26.043 27.1289 24.1289 27.2656 23.1172H23.4375V20.793H29.8906C29.9453 21.1484 30 21.4766 30 21.9141Z"
        fill="white" />
</svg>
    