<svg width="30" height="30" viewBox="0 0 30 30" fill="none" xmlns="http://www.w3.org/2000/svg">
<path d="M9.11075 12.0906V10.2156H23V12.0906H9.11075ZM9.11075 18.4375V16.5625H23V18.4375H9.11075ZM9.11075 24.7844V22.9094H23V24.7844H9.11075ZM5.69187 12.3062C5.49612 12.3062 5.33188 12.1919 5.19913 11.9631C5.06638 11.7344 5 11.4525 5 11.1175C5 10.8012 5.06638 10.5356 5.19913 10.3206C5.33188 10.1069 5.49612 10 5.69187 10C5.88837 10 6.053 10.1069 6.18575 10.3206C6.3185 10.5356 6.38487 10.8012 6.38487 11.1175C6.38487 11.455 6.3185 11.7375 6.18575 11.965C6.053 12.1925 5.88837 12.3069 5.69187 12.3081M5.69187 18.6175C5.49612 18.6175 5.33188 18.5106 5.19913 18.2969C5.06638 18.0819 5 17.8162 5 17.5C5 17.1375 5.06638 16.8488 5.19913 16.6338C5.33188 16.4188 5.49612 16.3106 5.69187 16.3094C5.88837 16.3094 6.053 16.4175 6.18575 16.6338C6.3185 16.8488 6.38487 17.1375 6.38487 17.5C6.38487 17.8162 6.3185 18.0819 6.18575 18.2969C6.053 18.5106 5.88837 18.6175 5.69187 18.6175ZM5.69187 25C5.49612 25 5.33188 24.8862 5.19913 24.6587C5.06638 24.4312 5 24.1481 5 23.8094C5 23.4931 5.06638 23.2281 5.19913 23.0144C5.33188 22.8006 5.49612 22.6931 5.69187 22.6919C5.88837 22.6919 6.053 22.7994 6.18575 23.0144C6.3185 23.2281 6.38487 23.4931 6.38487 23.8094C6.38487 24.1469 6.3185 24.43 6.18575 24.6587C6.053 24.8862 5.88837 25 5.69187 25Z" fill="#274788"/>
</svg>
