<svg width="13" height="11" viewBox="0 0 13 11" fill="none" xmlns="http://www.w3.org/2000/svg">
<path d="M2.25 10.75C0.984375 10.75 0 9.74219 0 8.5V2.5C0 1.25781 0.984375 0.25 2.25 0.25H3.75C4.14844 0.25 4.5 0.601562 4.5 1C4.5 1.42188 4.14844 1.75 3.75 1.75H2.25C1.82812 1.75 1.5 2.10156 1.5 2.5V8.5C1.5 8.92188 1.82812 9.25 2.25 9.25H3.75C4.14844 9.25 4.5 9.60156 4.5 10C4.5 10.4219 4.14844 10.75 3.75 10.75H2.25ZM11.8125 5.10156C12.0469 5.3125 12.0469 5.71094 11.8125 5.89844L8.4375 9.08594C8.27344 9.25 8.03906 9.27344 7.82812 9.20312C7.61719 9.10938 7.5 8.89844 7.5 8.6875V7H4.5C4.07812 7 3.75 6.67188 3.75 6.25V4.75C3.75 4.35156 4.07812 4 4.5 4H7.5V2.3125C7.5 2.10156 7.61719 1.89062 7.82812 1.79688C8.03906 1.72656 8.27344 1.75 8.4375 1.91406L11.8125 5.10156Z" fill="#264888"/>
</svg>
