<svg width="66" height="66" viewBox="0 0 66 66" fill="none" xmlns="http://www.w3.org/2000/svg">
<g clip-path="url(#clip0_2003_293)">
<g filter="url(#filter0_d_2003_293)">
<rect width="66" height="66" rx="33" fill="url(#paint0_linear_2003_293)"/>
</g>
<path d="M41.9539 24.7434L41.5193 22.6359C41.4889 22.4904 41.362 22.385 41.2115 22.3816C39.852 22.3549 33.4075 22.3314 28.9483 22.3181L28.2584 20.1904L27.1221 20.5501L27.6919 22.3147C26.4423 22.3114 25.4547 22.308 24.944 22.308C24.7208 22.308 24.5281 22.4619 24.4824 22.6777L24.0495 24.7434H22V25.5497V25.9243V26.7306H23.346L26.7297 46.1904H39.2703L42.654 26.7306H44V25.9243V25.5497V24.7434H41.9539ZM27.7359 45.0095L26.9225 40.3311H39.0792L38.2658 45.0095H27.7359ZM29.3085 35.5723C29.3085 33.5969 30.9285 31.9945 32.9256 31.9945C34.9227 31.9945 36.5427 33.5952 36.5427 35.5723C36.5427 37.5477 34.9227 39.1502 32.9256 39.1502C30.9285 39.1502 29.3085 37.5477 29.3085 35.5723ZM40.711 30.9474H25.2907L24.6583 27.306H41.3434L40.711 30.9474Z" fill="#888C19"/>
<rect x="0.5" y="0.5" width="65" height="65" rx="32.5" stroke="#D8DC6B"/>
</g>
<defs>
<filter id="filter0_d_2003_293" x="-15" y="-10" width="96" height="96" filterUnits="userSpaceOnUse" color-interpolation-filters="sRGB">
<feFlood flood-opacity="0" result="BackgroundImageFix"/>
<feColorMatrix in="SourceAlpha" type="matrix" values="0 0 0 0 0 0 0 0 0 0 0 0 0 0 0 0 0 0 127 0" result="hardAlpha"/>
<feOffset dy="5"/>
<feGaussianBlur stdDeviation="7.5"/>
<feComposite in2="hardAlpha" operator="out"/>
<feColorMatrix type="matrix" values="0 0 0 0 0.98941 0 0 0 0 1 0 0 0 0 0.685833 0 0 0 1 0"/>
<feBlend mode="normal" in2="BackgroundImageFix" result="effect1_dropShadow_2003_293"/>
<feBlend mode="normal" in="SourceGraphic" in2="effect1_dropShadow_2003_293" result="shape"/>
</filter>
<linearGradient id="paint0_linear_2003_293" x1="33" y1="0" x2="33" y2="66" gradientUnits="userSpaceOnUse">
<stop stop-color="#FBFCDA"/>
<stop offset="1" stop-color="#E7EA8D"/>
</linearGradient>
<clipPath id="clip0_2003_293">
<rect width="66" height="66" fill="white"/>
</clipPath>
</defs>
</svg>
