<?xml version='1.0' encoding='iso-8859-1'?>
<!-- Uploaded to: SVG Repo, www.svgrepo.com, Generator: SVG Repo Mixer Tools -->
<svg fill="currentColor" height="800px" width="800px" version="1.1"
    xmlns="http://www.w3.org/2000/svg" viewBox="0 0 462.904 462.904"
    xmlns:xlink="http://www.w3.org/1999/xlink" enable-background="new 0 0 462.904 462.904">
    <g>
        <path d="m55,247.403c0-88.5 72-160.5 160.5-160.5 4.142,0 7.5-3.357 7.5-7.5s-3.358-7.5-7.5-7.5c-96.771,0-175.5,78.729-175.5,175.5 0,39.855 13.023,77.423 37.661,108.643 1.48,1.875 3.675,2.854 5.892,2.854 1.627,0 3.265-0.526 4.642-1.612 3.251-2.566 3.807-7.282 1.241-10.534-22.528-28.547-34.436-62.902-34.436-99.351z"/>
        <path d="m383.5,239.903c-4.142,0-7.5,3.357-7.5,7.5 0,88.5-72,160.5-160.5,160.5-38.082,0-75.002-13.571-103.959-38.215-3.154-2.684-7.888-2.303-10.572,0.852-2.685,3.154-2.304,7.888 0.851,10.572 31.667,26.949 72.04,41.791 113.681,41.791 96.771,0 175.5-78.729 175.5-175.5-0.001-4.142-3.359-7.5-7.501-7.5z"/>
        <path d="m408.881,170.374l-180.993,64.641 64.64-180.992c1.393-3.9-0.64-8.192-4.54-9.585-23.283-8.317-47.672-12.534-72.488-12.534-57.562,0-111.679,22.416-152.381,63.118-40.703,40.703-63.119,94.82-63.119,152.381s22.416,111.679 63.119,152.382c40.703,40.702 94.819,63.118 152.381,63.118s111.679-22.416 152.381-63.118c40.703-40.703 63.119-94.82 63.119-152.382 0-24.816-4.217-49.205-12.534-72.488-1.393-3.901-5.687-5.93-9.585-4.541zm-193.381,277.529c-110.556,0-200.5-89.944-200.5-200.5s89.944-200.5 200.5-200.5c20.578,0 40.838,3.115 60.333,9.269l-8.41,23.547c-6.078-1.878-12.275-3.434-18.502-4.635-4.067-0.79-8,1.876-8.785,5.944-0.785,4.066 1.877,8 5.944,8.784 5.48,1.057 10.931,2.427 16.288,4.059l-53.932,151.01c-0.975,2.729-0.29,5.776 1.76,7.826 2.049,2.048 5.096,2.733 7.826,1.76l151.011-53.933c1.632,5.356 3.001,10.807 4.058,16.286 0.692,3.588 3.833,6.081 7.356,6.081 0.471,0 0.949-0.044 1.429-0.137 4.067-0.784 6.728-4.717 5.944-8.784-1.201-6.227-2.756-12.424-4.634-18.501l23.546-8.409c6.153,19.494 9.269,39.755 9.269,60.333-0.001,110.556-89.945,200.5-200.501,200.5z"/>
        <path d="m380.701,76.734c-2.994-2.864-7.74-2.76-10.604,0.233s-2.76,7.74 0.233,10.604c4.168,3.988 8.165,8.249 11.878,12.662 1.483,1.763 3.605,2.671 5.743,2.671 1.705,0 3.418-0.578 4.825-1.761 3.169-2.667 3.577-7.398 0.91-10.568-4.06-4.823-8.429-9.479-12.985-13.841z"/>
        <path d="m462.467,130.915c-10.638-29.781-28.138-57.4-50.608-79.87s-50.089-39.97-79.871-50.607c-1.872-0.669-3.936-0.566-5.733,0.284-1.798,0.852-3.184,2.383-3.853,4.256l-69.965,195.903c-0.975,2.729-0.29,5.776 1.76,7.826 1.431,1.431 3.348,2.196 5.304,2.196 0.845,0 1.698-0.143 2.521-0.437l158.07-56.453c0.003-0.001 0.006-0.003 0.009-0.004l37.825-13.509c1.874-0.67 3.404-2.056 4.256-3.853 0.851-1.796 0.954-3.859 0.285-5.732zm-40.515,6.505c-3.047-7.492-6.619-14.795-10.668-21.786-2.075-3.585-6.665-4.807-10.249-2.731-3.584,2.076-4.807,6.665-2.731,10.249 3.594,6.205 6.78,12.677 9.512,19.317l-135.928,48.546 48.546-135.928c9.396,3.866 18.429,8.631 26.934,14.213 3.462,2.271 8.113,1.309 10.385-2.155 2.273-3.463 1.308-8.112-2.155-10.386-9.499-6.235-19.608-11.519-30.121-15.794l8.48-23.743c25.02,10.037 48.162,25.297 67.295,44.43 19.133,19.134 34.393,42.275 44.43,67.294l-23.73,8.474z"/>
        <path d="m147.847,243.167c2.075-3.585 0.852-8.173-2.733-10.248-3.583-2.076-8.172-0.853-10.249,2.732-1.519,2.623-4.341,4.252-7.365,4.252-4.687,0-8.5-3.813-8.5-8.5s3.813-8.5 8.5-8.5c4.142,0 7.5-3.357 7.5-7.5s-3.358-7.5-7.5-7.5c-12.958,0-23.5,10.542-23.5,23.5s10.542,23.5 23.5,23.5c8.359-2.84217e-14 16.155-4.497 20.347-11.736z"/>
        <path d="m353.114,128.919c-3.583-2.077-8.172-0.853-10.249,2.732-1.519,2.623-4.341,4.252-7.365,4.252-4.687,0-8.5-3.813-8.5-8.5s3.813-8.5 8.5-8.5c4.142,0 7.5-3.357 7.5-7.5s-3.358-7.5-7.5-7.5c-12.958,0-23.5,10.542-23.5,23.5s10.542,23.5 23.5,23.5c8.359,0 16.155-4.497 20.347-11.736 2.075-3.585 0.852-8.173-2.733-10.248z"/>
        <path d="m281.644,351c8.359,0 16.155-4.497 20.347-11.736 2.075-3.585 0.852-8.173-2.733-10.248-3.583-2.076-8.172-0.853-10.249,2.732-1.519,2.623-4.341,4.252-7.365,4.252-4.687,0-8.5-3.813-8.5-8.5s3.813-8.5 8.5-8.5c4.142,0 7.5-3.357 7.5-7.5s-3.358-7.5-7.5-7.5c-12.958,0-23.5,10.542-23.5,23.5s10.542,23.5 23.5,23.5z"/>
        <path d="m198.865,323.651c-1.519,2.623-4.341,4.252-7.365,4.252-4.687,0-8.5-3.813-8.5-8.5s3.813-8.5 8.5-8.5c4.142,0 7.5-3.357 7.5-7.5s-3.358-7.5-7.5-7.5c-12.958,0-23.5,10.542-23.5,23.5s10.542,23.5 23.5,23.5c8.359,0 16.155-4.497 20.347-11.736 2.075-3.585 0.852-8.173-2.733-10.248-3.583-2.077-8.172-0.853-10.249,2.732z"/>
        <path d="m183.5,142.903c4.142,0 7.5-3.357 7.5-7.5s-3.358-7.5-7.5-7.5c-12.958,0-23.5,10.542-23.5,23.5s10.542,23.5 23.5,23.5c8.359,0 16.155-4.497 20.347-11.736 2.075-3.585 0.852-8.173-2.733-10.248-3.583-2.076-8.172-0.853-10.249,2.732-1.519,2.623-4.341,4.252-7.365,4.252-4.687,0-8.5-3.813-8.5-8.5s3.813-8.5 8.5-8.5z"/>
        <path d="m154.197,194.1c-2.929,2.93-2.929,7.678 0,10.607l16,16c1.464,1.464 3.384,2.196 5.303,2.196s3.839-0.732 5.303-2.196c2.929-2.93 2.929-7.678 0-10.607l-16-16c-2.928-2.928-7.678-2.928-10.606,0z"/>
        <path d="m116.803,180.707c2.929-2.93 2.929-7.678 0-10.607-2.929-2.928-7.678-2.928-10.606,0l-8,8c-2.929,2.93-2.929,7.678 0,10.607 1.464,1.464 3.384,2.196 5.303,2.196s3.839-0.732 5.303-2.196l8-8z"/>
        <path d="m114.197,298.1l-8,8c-2.929,2.93-2.929,7.678 0,10.607 1.464,1.464 3.384,2.196 5.303,2.196s3.839-0.732 5.303-2.196l8-8c2.929-2.93 2.929-7.678 0-10.607-2.928-2.928-7.678-2.928-10.606,0z"/>
        <path d="m239.5,287h16c4.142,0 7.5-3.357 7.5-7.5s-3.358-7.5-7.5-7.5h-16c-4.142,0-7.5,3.357-7.5,7.5s3.358,7.5 7.5,7.5z"/>
        <path d="m335.5,262.903c1.919,0 3.839-0.732 5.303-2.196l8-8c2.929-2.93 2.929-7.678 0-10.607-2.929-2.928-7.678-2.928-10.606,0l-8,8c-2.929,2.93-2.929,7.678 0,10.607 1.464,1.464 3.384,2.196 5.303,2.196z"/>
        <path d="m322.197,316.804c1.464,1.464 3.384,2.196 5.303,2.196s3.839-0.732 5.303-2.196c2.929-2.93 2.929-7.678 0-10.607l-8-8c-2.929-2.928-7.678-2.928-10.606,0-2.929,2.93-2.929,7.678 0,10.607l8,8z"/>
        <path d="m223.5,382.903c1.919,0 3.839-0.732 5.303-2.196l8-8c2.929-2.93 2.929-7.678 0-10.607-2.929-2.928-7.678-2.928-10.606,0l-8,8c-2.929,2.93-2.929,7.678 0,10.607 1.464,1.464 3.384,2.196 5.303,2.196z"/>
        <path d="m175.5,271c4.142,0 7.5-3.357 7.5-7.5s-3.358-7.5-7.5-7.5h-8c-4.142,0-7.5,3.357-7.5,7.5s3.358,7.5 7.5,7.5h8z"/>
        <path d="m338.197,92.707c1.464,1.464 3.384,2.196 5.303,2.196s3.839-0.732 5.303-2.196c2.929-2.93 2.929-7.678 0-10.607l-8-8c-2.929-2.928-7.678-2.928-10.606,0-2.929,2.93-2.929,7.678 0,10.607l8,8z"/>
        <path d="m375.5,112c-4.142,0-7.5,3.357-7.5,7.5v15.903c0,4.143 3.358,7.5 7.5,7.5s7.5-3.357 7.5-7.5v-15.903c0-4.143-3.358-7.5-7.5-7.5z"/>
        <path d="m154.197,364.804c1.464,1.464 3.384,2.196 5.303,2.196s3.839-0.732 5.303-2.196c2.929-2.93 2.929-7.678 0-10.607l-8-8c-2.929-2.928-7.678-2.928-10.606,0-2.929,2.93-2.929,7.678 0,10.607l8,8z"/>
        <path d="m295.5,263c4.142,0 7.5-3.357 7.5-7.5v-8c0-4.143-3.358-7.5-7.5-7.5s-7.5,3.357-7.5,7.5v8c0,4.142 3.358,7.5 7.5,7.5z"/>
        <path d="m100.803,258.196l-8-8c-2.929-2.928-7.678-2.928-10.606,0-2.929,2.93-2.929,7.678 0,10.607l8,8c1.464,1.464 3.384,2.197 5.303,2.197s3.839-0.732 5.303-2.196c2.929-2.93 2.929-7.678 0-10.608z"/>
        <path d="m216,111.5v8c0,4.143 3.358,7.5 7.5,7.5s7.5-3.357 7.5-7.5v-8c0-4.143-3.358-7.5-7.5-7.5s-7.5,3.357-7.5,7.5z"/>
    </g>
</svg>