<svg width="14" height="17" viewBox="0 0 14 17" fill="none" xmlns="http://www.w3.org/2000/svg">
<path d="M10 11.2188C9.5625 11.4688 8.90625 11.2188 8.40625 11.3438C7.9375 11.4688 7.5 12 7 12C6.46875 12 6.03125 11.4688 5.5625 11.3438C5.0625 11.2188 4.40625 11.4688 3.96875 11.2188C3.53125 10.9688 3.4375 10.2812 3.09375 9.90625C2.71875 9.5625 2.03125 9.4375 1.78125 9.03125C1.53125 8.59375 1.78125 7.9375 1.65625 7.4375C1.53125 6.96875 1 6.53125 1 6C1 5.5 1.53125 5.0625 1.65625 4.59375C1.78125 4.09375 1.53125 3.4375 1.78125 3C2.03125 2.5625 2.71875 2.46875 3.09375 2.125C3.4375 1.75 3.5625 1.0625 3.96875 0.8125C4.40625 0.5625 5.0625 0.8125 5.5625 0.6875C6.03125 0.5625 6.46875 0 7 0C7.5 0 7.9375 0.5625 8.375 0.6875C8.875 0.8125 9.53125 0.5625 9.96875 0.8125C10.4062 1.0625 10.5 1.75 10.875 2.125C11.2188 2.46875 11.9062 2.5625 12.1562 3C12.4062 3.4375 12.1562 4.09375 12.2812 4.59375C12.4062 5.0625 12.9688 5.5 12.9688 6C12.9688 6.53125 12.4375 6.96875 12.3125 7.4375C12.1875 7.9375 12.4375 8.59375 12.1875 9.03125C11.9375 9.46875 11.25 9.5625 10.875 9.90625C10.5312 10.2812 10.4062 10.9688 10 11.2188ZM4.5 6C4.5 7.40625 5.59375 8.5 7 8.5C8.375 8.5 9.5 7.40625 9.5 6C9.5 4.625 8.375 3.5 7 3.5C5.59375 3.5 4.5 4.625 4.5 6ZM1.03125 13.5625L2.0625 11C3.1875 12.0938 4.6875 12.8438 6.375 13L5.3125 15.5625C5.21875 15.8125 4.96875 16 4.65625 16C4.65625 16 4.65625 16 4.625 16C4.34375 16 4.09375 15.8438 3.96875 15.5938L3.28125 14.2812L1.875 14.5625C1.625 14.625 1.34375 14.5312 1.15625 14.3125C0.96875 14.0938 0.9375 13.8125 1.03125 13.5625ZM11.9062 11L12.9375 13.5625C13.0312 13.8125 13 14.0938 12.8125 14.3125C12.625 14.5312 12.3438 14.625 12.0938 14.5625L10.6875 14.2812L10 15.5938C9.875 15.875 9.625 16 9.34375 16C9.3125 16 9.3125 16 9.3125 16.0312C9 16 8.75 15.8125 8.625 15.5625L7.59375 13C9.28125 12.8438 10.7812 12.0938 11.9062 11Z" fill="currentColor"/>
</svg>
