<svg width="23" height="23" viewBox="0 0 23 23" fill="none" xmlns="http://www.w3.org/2000/svg">
<g clip-path="url(#clip0_2009_387)">
<g filter="url(#filter0_d_2009_387)">
<circle cx="11.5" cy="11.5" r="11.5" fill="url(#paint0_linear_2009_387)"/>
</g>
<path d="M17.7188 15.9062C18.0703 16.2812 18.0703 16.8672 17.7188 17.2422C17.3438 17.5938 16.7578 17.5938 16.3828 17.2422L13.5938 14.4297C12.6328 15.0625 11.4609 15.3906 10.1953 15.2266C8.03906 14.9219 6.30469 13.1641 6.02344 11.0312C5.625 7.84375 8.32031 5.14844 11.5078 5.54688C13.6406 5.82812 15.3984 7.5625 15.7031 9.71875C15.8672 10.9844 15.5391 12.1562 14.9062 13.0938L17.7188 15.9062ZM7.85156 10.375C7.85156 12.0391 9.1875 13.375 10.8516 13.375C12.4922 13.375 13.8516 12.0391 13.8516 10.375C13.8516 8.73438 12.4922 7.375 10.8516 7.375C9.1875 7.375 7.85156 8.73438 7.85156 10.375Z" fill="#004D3D"/>
</g>
<defs>
<filter id="filter0_d_2009_387" x="-15" y="-10" width="53" height="53" filterUnits="userSpaceOnUse" color-interpolation-filters="sRGB">
<feFlood flood-opacity="0" result="BackgroundImageFix"/>
<feColorMatrix in="SourceAlpha" type="matrix" values="0 0 0 0 0 0 0 0 0 0 0 0 0 0 0 0 0 0 127 0" result="hardAlpha"/>
<feOffset dy="5"/>
<feGaussianBlur stdDeviation="7.5"/>
<feComposite in2="hardAlpha" operator="out"/>
<feColorMatrix type="matrix" values="0 0 0 0 0.321569 0 0 0 0 0.666667 0 0 0 0 0.580392 0 0 0 0.6 0"/>
<feBlend mode="normal" in2="BackgroundImageFix" result="effect1_dropShadow_2009_387"/>
<feBlend mode="normal" in="SourceGraphic" in2="effect1_dropShadow_2009_387" result="shape"/>
</filter>
<linearGradient id="paint0_linear_2009_387" x1="11.5" y1="0" x2="11.5" y2="23" gradientUnits="userSpaceOnUse">
<stop stop-color="#D6E6CD"/>
<stop offset="1" stop-color="#8EC1B8"/>
</linearGradient>
<clipPath id="clip0_2009_387">
<rect width="23" height="23" fill="white"/>
</clipPath>
</defs>
</svg>
