<svg width="14" height="13" viewBox="0 0 14 13" fill="none" xmlns="http://www.w3.org/2000/svg">
<path d="M12.7188 10.9062C13.0703 11.2812 13.0703 11.8672 12.7188 12.2422C12.3438 12.5938 11.7578 12.5938 11.3828 12.2422L8.59375 9.42969C7.63281 10.0625 6.46094 10.3906 5.19531 10.2266C3.03906 9.92188 1.30469 8.16406 1.02344 6.03125C0.625 2.84375 3.32031 0.148438 6.50781 0.546875C8.64062 0.828125 10.3984 2.5625 10.7031 4.71875C10.8672 5.98438 10.5391 7.15625 9.90625 8.09375L12.7188 10.9062ZM2.85156 5.375C2.85156 7.03906 4.1875 8.375 5.85156 8.375C7.49219 8.375 8.85156 7.03906 8.85156 5.375C8.85156 3.73438 7.49219 2.375 5.85156 2.375C4.1875 2.375 2.85156 3.73438 2.85156 5.375Z" fill="#264888"/>
</svg>
