<svg width="17" height="17" viewBox="0 0 17 17" fill="none" xmlns="http://www.w3.org/2000/svg">
<circle cx="8.5" cy="8.5" r="8.5" fill="#FFB21D"/>
<path d="M10.1348 6.7793L12.6484 7.14844C12.8594 7.18359 13.0352 7.32422 13.1055 7.53516C13.1758 7.72852 13.123 7.95703 12.9648 8.09766L11.1367 9.9082L11.5762 12.4746C11.6113 12.6855 11.5234 12.8965 11.3477 13.0195C11.1719 13.1602 10.9434 13.1602 10.75 13.0723L8.5 11.8594L6.23242 13.0723C6.05664 13.1602 5.81055 13.1602 5.65234 13.0195C5.47656 12.8965 5.38867 12.6855 5.42383 12.4746L5.8457 9.9082L4.01758 8.09766C3.85938 7.95703 3.80664 7.72852 3.87695 7.53516C3.94727 7.32422 4.12305 7.18359 4.33398 7.14844L6.86523 6.7793L7.99023 4.44141C8.07812 4.24805 8.27148 4.125 8.5 4.125C8.71094 4.125 8.9043 4.24805 8.99219 4.44141L10.1348 6.7793Z" fill="white"/>
</svg>
