<svg width="67" height="66" viewBox="0 0 67 66" fill="none" xmlns="http://www.w3.org/2000/svg">
    <g clip-path="url(#clip0_2003_281)">
    <g filter="url(#filter0_d_2003_281)">
    <rect x="0.0830078" width="66" height="66" rx="33" fill="url(#paint0_linear_2003_281)"/>
    </g>
    <path d="M28.333 27.25C28.333 24.3906 30.6768 22 33.583 22C36.4424 22 38.833 24.3906 38.833 27.25V29.5H41.833C43.0518 29.5 44.083 30.5312 44.083 31.75V41.5C44.083 43.9844 42.0674 46 39.583 46H27.583C25.0518 46 23.083 43.9844 23.083 41.5V31.75C23.083 30.5312 24.0674 29.5 25.333 29.5H28.333V27.25ZM30.583 29.5H36.583V27.25C36.583 25.6094 35.2236 24.25 33.583 24.25C31.8955 24.25 30.583 25.6094 30.583 27.25V29.5ZM29.458 34C30.0674 34 30.583 33.5312 30.583 32.875C30.583 32.2656 30.0674 31.75 29.458 31.75C28.8018 31.75 28.333 32.2656 28.333 32.875C28.333 33.5312 28.8018 34 29.458 34ZM37.708 31.75C37.0518 31.75 36.583 32.2656 36.583 32.875C36.583 33.5312 37.0518 34 37.708 34C38.3174 34 38.833 33.5312 38.833 32.875C38.833 32.2656 38.3174 31.75 37.708 31.75Z" fill="#004D3D"/>
    <g filter="url(#filter1_d_2003_281)">
    <rect x="0.583008" y="0.5" width="65" height="65" rx="32.5" stroke="#94C3B9" shape-rendering="crispEdges"/>
    </g>
    </g>
    <defs>
    <filter id="filter0_d_2003_281" x="-14.917" y="-10" width="96" height="96" filterUnits="userSpaceOnUse" color-interpolation-filters="sRGB">
    <feFlood flood-opacity="0" result="BackgroundImageFix"/>
    <feColorMatrix in="SourceAlpha" type="matrix" values="0 0 0 0 0 0 0 0 0 0 0 0 0 0 0 0 0 0 127 0" result="hardAlpha"/>
    <feOffset dy="5"/>
    <feGaussianBlur stdDeviation="7.5"/>
    <feComposite in2="hardAlpha" operator="out"/>
    <feColorMatrix type="matrix" values="0 0 0 0 0.78594 0 0 0 0 0.918333 0 0 0 0 0.895419 0 0 0 1 0"/>
    <feBlend mode="normal" in2="BackgroundImageFix" result="effect1_dropShadow_2003_281"/>
    <feBlend mode="normal" in="SourceGraphic" in2="effect1_dropShadow_2003_281" result="shape"/>
    </filter>
    <filter id="filter1_d_2003_281" x="-14.917" y="-10" width="96" height="96" filterUnits="userSpaceOnUse" color-interpolation-filters="sRGB">
    <feFlood flood-opacity="0" result="BackgroundImageFix"/>
    <feColorMatrix in="SourceAlpha" type="matrix" values="0 0 0 0 0 0 0 0 0 0 0 0 0 0 0 0 0 0 127 0" result="hardAlpha"/>
    <feOffset dy="5"/>
    <feGaussianBlur stdDeviation="7.5"/>
    <feComposite in2="hardAlpha" operator="out"/>
    <feColorMatrix type="matrix" values="0 0 0 0 0.78594 0 0 0 0 0.918333 0 0 0 0 0.895419 0 0 0 1 0"/>
    <feBlend mode="normal" in2="BackgroundImageFix" result="effect1_dropShadow_2003_281"/>
    <feBlend mode="normal" in="SourceGraphic" in2="effect1_dropShadow_2003_281" result="shape"/>
    </filter>
    <linearGradient id="paint0_linear_2003_281" x1="33.083" y1="0" x2="33.083" y2="66" gradientUnits="userSpaceOnUse">
    <stop stop-color="#F4F9F2"/>
    <stop offset="1" stop-color="#93C3B9"/>
    </linearGradient>
    <clipPath id="clip0_2003_281">
    <rect width="66" height="66" fill="white" transform="translate(0.0830078)"/>
    </clipPath>
    </defs>
    </svg>
    