<?xml version="1.0" encoding="utf-8"?>
<svg fill="currentColor" height="800px" width="800px" version="1.1" id="Icons"
    xmlns="http://www.w3.org/2000/svg"
    xmlns:xlink="http://www.w3.org/1999/xlink" viewBox="0 0 32 32" xml:space="preserve">
    <circle cx="16" cy="14" r="1"/>
    <g>
        <path d="M14.5,29c-1.4,0-2.5-1.1-2.5-2.5c0-0.8-0.7-1.5-1.5-1.5H3c-0.6,0-1-0.4-1-1v-3c0-0.6,0.4-1,1-1h19.1
		c0.2-0.8,0.7-1.5,1.3-2.1c0.9-0.8,2.1-1.1,3.3-0.9l0,0c1.6,0.3,2.9,1.6,3.2,3.2c0.2,1.2-0.1,2.4-0.9,3.3C28.3,24.5,27.2,25,26,25
		h-7.5c-0.8,0-1.5,0.7-1.5,1.5C17,27.9,15.9,29,14.5,29z"/>
    </g>
    <g>
        <g>
            <path d="M14.5,29c-1.4,0-2.5-1.1-2.5-2.5c0-0.8-0.7-1.5-1.5-1.5H3c-0.6,0-1-0.4-1-1v-3c0-0.6,0.4-1,1-1h19.1
			c0.2-0.8,0.7-1.5,1.3-2.1c0.9-0.8,2.1-1.1,3.3-0.9l0,0c1.6,0.3,2.9,1.6,3.2,3.2c0.2,1.2-0.1,2.4-0.9,3.3C28.3,24.5,27.2,25,26,25
			h-7.5c-0.8,0-1.5,0.7-1.5,1.5C17,27.9,15.9,29,14.5,29z"/>
            <path d="M20.8,18c0.3-0.6,0.8-1.1,1.3-1.6c0.3-0.3,0.6-0.5,1-0.7c-1.1-3.3-3.2-6.2-6.1-8.2l-0.5-0.4c-0.4-0.3-0.9-0.2-1.3,0.1
			L4.6,18H20.8z M16,11c1.7,0,3,1.3,3,3s-1.3,3-3,3s-3-1.3-3-3S14.3,11,16,11z M11,15c0.6,0,1,0.4,1,1s-0.4,1-1,1s-1-0.4-1-1
			S10.4,15,11,15z"/>
            <path d="M18.2,5.9c3.2,2.3,5.6,5.5,6.8,9.2c0.7-0.1,1.4-0.1,2,0c0.9,0.2,1.7,0.5,2.4,1c-1.2-5-4.1-9.4-8.3-12.4l-0.6-0.5
			C20.3,3.1,20.1,3,19.9,3c-1.6,0-3,0.8-3.9,2c0.6,0,1.2,0.2,1.8,0.5L18.2,5.9z"/>
        </g>
    </g>
</svg>