<svg width="37" height="37" viewBox="0 0 37 37" fill="none" xmlns="http://www.w3.org/2000/svg">
    <rect width="37" height="37" rx="18.5" fill="#264888" />
    <path
        d="M26 12C27.0938 12 28 12.9062 28 14V22C28 23.125 27.0938 24 26 24H12C10.875 24 10 23.125 10 22V14C10 12.9062 10.875 12 12 12H26ZM14 22C14 20.9062 13.0938 20 12 20V22H14ZM12 16C13.0938 16 14 15.125 14 14H12V16ZM26 22V20C24.875 20 24 20.9062 24 22H26ZM26 14H24C24 15.125 24.875 16 26 16V14ZM19 21C20.6562 21 22 19.6562 22 18C22 16.3438 20.6562 15 19 15C17.3125 15 16 16.3438 16 18C16 19.6562 17.3125 21 19 21Z"
        fill="white" />
</svg>
    