<svg width="37" height="37" viewBox="0 0 37 37" fill="none" xmlns="http://www.w3.org/2000/svg">
    <rect width="37" height="37" rx="18.5" fill="#FEFEFE" />
    <path
        d="M21.9062 14.7188L26.375 15.375C26.75 15.4375 27.0625 15.6875 27.1875 16.0625C27.3125 16.4062 27.2188 16.8125 26.9375 17.0625L23.6875 20.2812L24.4688 24.8438C24.5312 25.2188 24.375 25.5938 24.0625 25.8125C23.75 26.0625 23.3438 26.0625 23 25.9062L19 23.75L14.9688 25.9062C14.6562 26.0625 14.2188 26.0625 13.9375 25.8125C13.625 25.5938 13.4688 25.2188 13.5312 24.8438L14.2812 20.2812L11.0312 17.0625C10.75 16.8125 10.6562 16.4062 10.7812 16.0625C10.9062 15.6875 11.2188 15.4375 11.5938 15.375L16.0938 14.7188L18.0938 10.5625C18.25 10.2188 18.5938 10 19 10C19.375 10 19.7188 10.2188 19.875 10.5625L21.9062 14.7188Z"
        fill="#2A64A3" />
</svg>
    