<svg width="37" height="37" viewBox="0 0 37 37" fill="none" xmlns="http://www.w3.org/2000/svg">
    <rect width="37" height="37" rx="18.5" fill="#FEFEFE" />
    <path
        d="M16.0312 21.3438C16.4375 21.7812 17.0312 22 17.625 22C18.0312 22 18.4062 21.9062 18.75 21.7188L17.0938 25.7188C16.9688 26.0312 16.5312 26.125 16.2812 25.8438L15.1562 24.6562L13.5 24.7188C13.1562 24.75 12.875 24.375 13.0312 24.0312L14.4375 20.5625C14.6875 20.75 14.9375 20.9062 15.25 20.9688C15.875 21.1562 15.75 21.0625 16.0312 21.3438ZM24.9375 24.0312C25.0938 24.375 24.8125 24.75 24.4688 24.7188L22.8125 24.6562L21.6875 25.8438C21.4375 26.125 21 26.0312 20.875 25.7188L19.2188 21.7188C19.5625 21.9062 19.9375 22 20.3438 22C20.9375 22 21.5312 21.7812 21.9375 21.3438C22.2188 21.0625 22.0625 21.1562 22.75 20.9688C23.0312 20.9062 23.2812 20.75 23.5312 20.5625L24.9375 24.0312ZM21.2188 20.625C20.7812 21.0625 20.1562 21.125 19.6562 20.8125C19.4688 20.6875 19.2188 20.625 18.9688 20.625C18.75 20.625 18.5 20.6875 18.3125 20.8125C17.8125 21.125 17.1875 21.0625 16.7812 20.625C16.3125 20.1562 16.25 20.1875 15.5625 20C15.125 19.9062 14.7812 19.5625 14.6562 19.0938C14.4375 18.2188 14.5 18.3125 13.8438 17.6875C13.5312 17.3438 13.4062 16.875 13.5312 16.4375C13.75 15.5625 13.75 15.6875 13.5312 14.7812C13.4062 14.3438 13.5312 13.875 13.8438 13.5625C14.5 12.9062 14.4375 13 14.6562 12.125C14.7812 11.6875 15.125 11.3438 15.5625 11.2188C16.4375 10.9688 16.3125 11.0312 16.9688 10.375C17.2812 10.0625 17.75 9.9375 18.1875 10.0625C19.0312 10.2812 18.9375 10.2812 19.7812 10.0625C20.2188 9.9375 20.6875 10.0625 21 10.375C21.6562 11.0312 21.5312 10.9688 22.4062 11.2188C22.8438 11.3438 23.1875 11.6875 23.3125 12.125C23.5312 13 23.4688 12.9062 24.125 13.5625C24.4375 13.875 24.5625 14.3438 24.4375 14.7812C24.2188 15.6875 24.2188 15.5625 24.4375 16.4375C24.5625 16.875 24.4375 17.3438 24.125 17.6875C23.4688 18.3125 23.5312 18.2188 23.3125 19.0938C23.1875 19.5625 22.8438 19.9062 22.4062 20C21.75 20.1875 21.6875 20.1562 21.2188 20.625ZM16.0312 15.5C16.0312 17.1562 17.3438 18.5 19 18.5C20.625 18.5 21.9375 17.1562 21.9375 15.5C21.9375 13.8438 20.625 12.5 19 12.5C17.3438 12.5 16.0312 13.8438 16.0312 15.5Z"
        fill="#6BA3D4" />
</svg>
    