<svg width="24" height="24" viewBox="0 0 24 24" fill="none" xmlns="http://www.w3.org/2000/svg">
<path d="M16.5 12C16.5 13.0781 16.4062 14.0625 16.3125 15H7.64062C7.54688 14.0625 7.45312 13.0781 7.45312 12C7.45312 10.9688 7.54688 9.98438 7.64062 9H16.3125C16.4062 9.98438 16.5 10.9688 16.5 12ZM23.5781 9C23.8594 9.98438 24 10.9688 24 12C24 13.0781 23.8594 14.0625 23.5781 15H17.8125C17.9062 14.0625 18 13.0312 18 12C18 10.9688 17.9062 9.98438 17.8125 9H23.5781ZM23.1094 7.5H17.625C17.1562 4.54688 16.2188 2.01562 15.0469 0.421875C18.7031 1.40625 21.7031 4.03125 23.1094 7.5ZM16.125 7.5H7.82812C8.10938 5.8125 8.57812 4.3125 9.09375 3.09375C9.60938 1.96875 10.125 1.17188 10.6875 0.65625C11.2031 0.1875 11.625 0 12 0C12.3281 0 12.75 0.1875 13.2656 0.65625C13.8281 1.17188 14.3438 1.96875 14.8594 3.09375C15.375 4.3125 15.8438 5.8125 16.125 7.5ZM0.84375 7.5C2.25 4.03125 5.25 1.40625 8.90625 0.421875C7.73438 2.01562 6.79688 4.54688 6.32812 7.5H0.84375ZM6.14062 9C6.04688 9.98438 5.95312 10.9688 5.95312 12C5.95312 13.0312 6.04688 14.0625 6.14062 15H0.375C0.09375 14.0625 0 13.0781 0 12C0 10.9688 0.09375 9.98438 0.375 9H6.14062ZM9.09375 20.9531C8.57812 19.7344 8.10938 18.2344 7.82812 16.5H16.125C15.8438 18.2344 15.375 19.7344 14.8594 20.9531C14.3438 22.0781 13.8281 22.875 13.2656 23.3906C12.75 23.8594 12.3281 24 11.9531 24C11.625 24 11.2031 23.8594 10.6875 23.3906C10.125 22.875 9.60938 22.0781 9.09375 20.9531ZM8.90625 23.625C5.25 22.6406 2.25 20.0156 0.84375 16.5H6.32812C6.79688 19.5 7.73438 22.0312 8.90625 23.625ZM15.0469 23.625C16.2188 22.0312 17.1562 19.5 17.625 16.5H23.1094C21.7031 20.0156 18.7031 22.6406 15.0469 23.625Z" fill="#264888"/>
</svg>
